{"nbformat":4,"nbformat_minor":0,"metadata":{"colab":{"name":"ex1.ipynb","provenance":[],"collapsed_sections":[]},"kernelspec":{"name":"python3","display_name":"Python 3"}},"cells":[{"cell_type":"markdown","metadata":{"id":"GVW906RwCZ3I"},"source":["*   Multimídia - Vídeo (Exercício 1)\n","\n","*   Felipe Daniel Dias dos Santos - 11711ECP004\n","\n","*   Graduação em Engenharia de Computação - Faculdade de Engenharia Elétrica - Universidade Federal de Uberlândia"]},{"cell_type":"code","metadata":{"id":"2dzYQULOWmmq","colab":{"base_uri":"https://localhost:8080/","height":85},"outputId":"fcf5a443-e855-4f6f-e8c5-5c7e97a98286"},"source":["#Vídeo I\n","\n","#Declaração das bibliotecas necessárias, definição do diretório raíz e montagem do diretório\n","from google.colab import drive\n","import numpy as np\n","import cv2\n","import os\n","\n","drive.mount('/content/gdrive')\n","\n","root_path = '/content/gdrive/My Drive/Colab Notebooks/dados/'\n","\n","#Carregamento do vídeo I\n","vid_1 = cv2.VideoCapture(root_path + 'brandenburg.avi')\n","\n","#Obtendo a taxa de quadros do vídeo I a partir da flag \"CAP_PROP_FRAME_COUNT\"\n","n_frames = int(vid_1.get(cv2.CAP_PROP_FRAME_COUNT))\n","print(\"Quantidade de quadros:\", n_frames)\n","\n","#Obtendo o codec do vídeo I a partir da flag \"CAP_PROP_FOURCC\", que diz respeito ao tipo de compressão\n","#O retorno da função é o codec do arquivo, ou seja, um código que identifica a compressão do arquivo de vídeo\n","#Caso o arquivo não tenha compressão, o retorno será 0\n","cod = int(vid_1.get(cv2.CAP_PROP_FOURCC))\n","print(\"Codec:\", cod)\n","\n","#Obtendo o tamanho do vídeo I\n","vid_1_length = os.stat(root_path + 'brandenburg.avi').st_size\n","print(\"Tamanho do arquivo (em bytes):\", vid_1_length)"],"execution_count":null,"outputs":[{"output_type":"stream","text":["Drive already mounted at /content/gdrive; to attempt to forcibly remount, call drive.mount(\"/content/gdrive\", force_remount=True).\n","Quantidade de quadros: 5577\n","Codec: 877677894\n","Tamanho do arquivo (em bytes): 91907758\n"],"name":"stdout"}]},{"cell_type":"code","metadata":{"id":"ZccjOVlzakhP","colab":{"base_uri":"https://localhost:8080/","height":343},"outputId":"70e5c499-4b3f-4cb0-84ca-4d6e473d9413"},"source":["#Podemos obter as mesmas informações do vídeo I com o comando \"ffprobe\" da biblioteca \"ffmpeg\"\n","!ffprobe 'gdrive/My Drive/Colab Notebooks/dados/brandenburg.avi'"],"execution_count":null,"outputs":[{"output_type":"stream","text":["ffprobe version 3.4.8-0ubuntu0.2 Copyright (c) 2007-2020 the FFmpeg developers\n","  built with gcc 7 (Ubuntu 7.5.0-3ubuntu1~18.04)\n","  configuration: --prefix=/usr --extra-version=0ubuntu0.2 --toolchain=hardened --libdir=/usr/lib/x86_64-linux-gnu --incdir=/usr/include/x86_64-linux-gnu --enable-gpl --disable-stripping --enable-avresample --enable-avisynth --enable-gnutls --enable-ladspa --enable-libass --enable-libbluray --enable-libbs2b --enable-libcaca --enable-libcdio --enable-libflite --enable-libfontconfig --enable-libfreetype --enable-libfribidi --enable-libgme --enable-libgsm --enable-libmp3lame --enable-libmysofa --enable-libopenjpeg --enable-libopenmpt --enable-libopus --enable-libpulse --enable-librubberband --enable-librsvg --enable-libshine --enable-libsnappy --enable-libsoxr --enable-libspeex --enable-libssh --enable-libtheora --enable-libtwolame --enable-libvorbis --enable-libvpx --enable-libwavpack --enable-libwebp --enable-libx265 --enable-libxml2 --enable-libxvid --enable-libzmq --enable-libzvbi --enable-omx --enable-openal --enable-opengl --enable-sdl2 --enable-libdc1394 --enable-libdrm --enable-libiec61883 --enable-chromaprint --enable-frei0r --enable-libopencv --enable-libx264 --enable-shared\n","  libavutil      55. 78.100 / 55. 78.100\n","  libavcodec     57.107.100 / 57.107.100\n","  libavformat    57. 83.100 / 57. 83.100\n","  libavdevice    57. 10.100 / 57. 10.100\n","  libavfilter     6.107.100 /  6.107.100\n","  libavresample   3.  7.  0 /  3.  7.  0\n","  libswscale      4.  8.100 /  4.  8.100\n","  libswresample   2.  9.100 /  2.  9.100\n","  libpostproc    54.  7.100 / 54.  7.100\n","Input #0, avi, from 'gdrive/My Drive/Colab Notebooks/data/brandenburg.avi':\n","  Metadata:\n","    encoder         : Lavf58.29.100\n","  Duration: 00:03:05.91, start: 0.000000, bitrate: 3954 kb/s\n","    Stream #0:0: Video: mpeg4 (Simple Profile) (FMP4 / 0x34504D46), yuv420p, 1280x720 [SAR 1:1 DAR 16:9], 3722 kb/s, 30 fps, 30 tbr, 30 tbn, 30 tbc\n","    Stream #0:1: Audio: mp3 (U[0][0][0] / 0x0055), 44100 Hz, stereo, s16p, 219 kb/s\n"],"name":"stdout"}]},{"cell_type":"code","metadata":{"id":"vGIE4mZqkSY9","colab":{"base_uri":"https://localhost:8080/","height":68},"outputId":"2e4b73a0-ad24-4e08-d400-6caae62d070e"},"source":["#Vídeo II\n","\n","#Carregamento do vídeo II\n","vid_2 = cv2.VideoCapture(root_path + 'grb.avi')\n","\n","#Obtendo a quantidade de quadros do vídeo II\n","n_frames = int(vid_2.get(cv2.CAP_PROP_FRAME_COUNT))\n","print(\"Quantidade de quadros:\", n_frames)\n","\n","#Obtendo o codec do vídeo II\n","cod = int(vid_2.get(cv2.CAP_PROP_FOURCC))\n","print(\"Codec:\", cod)\n","\n","#Obtendo o tamanho do vídeo II\n","vid_2_length = os.stat(root_path + 'grb.avi').st_size\n","print(\"Tamanho do arquivo (em bytes):\", vid_2_length)"],"execution_count":null,"outputs":[{"output_type":"stream","text":["Quantidade de quadros: 836\n","Codec: 877677894\n","Tamanho do arquivo (em bytes): 1028984\n"],"name":"stdout"}]},{"cell_type":"code","metadata":{"id":"ZV0aLe5ccmfb","colab":{"base_uri":"https://localhost:8080/","height":326},"outputId":"2cac88e3-ff7c-4097-a8f2-acc396eb4171"},"source":["#Podemos obter as mesmas informações do o vídeo II com o comando \"ffprobe\" da biblioteca \"ffmpeg\"\n","!ffprobe 'gdrive/My Drive/Colab Notebooks/dados/grb.avi'"],"execution_count":null,"outputs":[{"output_type":"stream","text":["ffprobe version 3.4.8-0ubuntu0.2 Copyright (c) 2007-2020 the FFmpeg developers\n","  built with gcc 7 (Ubuntu 7.5.0-3ubuntu1~18.04)\n","  configuration: --prefix=/usr --extra-version=0ubuntu0.2 --toolchain=hardened --libdir=/usr/lib/x86_64-linux-gnu --incdir=/usr/include/x86_64-linux-gnu --enable-gpl --disable-stripping --enable-avresample --enable-avisynth --enable-gnutls --enable-ladspa --enable-libass --enable-libbluray --enable-libbs2b --enable-libcaca --enable-libcdio --enable-libflite --enable-libfontconfig --enable-libfreetype --enable-libfribidi --enable-libgme --enable-libgsm --enable-libmp3lame --enable-libmysofa --enable-libopenjpeg --enable-libopenmpt --enable-libopus --enable-libpulse --enable-librubberband --enable-librsvg --enable-libshine --enable-libsnappy --enable-libsoxr --enable-libspeex --enable-libssh --enable-libtheora --enable-libtwolame --enable-libvorbis --enable-libvpx --enable-libwavpack --enable-libwebp --enable-libx265 --enable-libxml2 --enable-libxvid --enable-libzmq --enable-libzvbi --enable-omx --enable-openal --enable-opengl --enable-sdl2 --enable-libdc1394 --enable-libdrm --enable-libiec61883 --enable-chromaprint --enable-frei0r --enable-libopencv --enable-libx264 --enable-shared\n","  libavutil      55. 78.100 / 55. 78.100\n","  libavcodec     57.107.100 / 57.107.100\n","  libavformat    57. 83.100 / 57. 83.100\n","  libavdevice    57. 10.100 / 57. 10.100\n","  libavfilter     6.107.100 /  6.107.100\n","  libavresample   3.  7.  0 /  3.  7.  0\n","  libswscale      4.  8.100 /  4.  8.100\n","  libswresample   2.  9.100 /  2.  9.100\n","  libpostproc    54.  7.100 / 54.  7.100\n","Input #0, avi, from 'gdrive/My Drive/Colab Notebooks/data/grb_2.avi':\n","  Metadata:\n","    encoder         : Lavf57.66.105\n","  Duration: 00:00:27.89, start: 0.000000, bitrate: 295 kb/s\n","    Stream #0:0: Video: mpeg4 (Simple Profile) (FMP4 / 0x34504D46), yuv420p, 720x480 [SAR 8:9 DAR 4:3], 287 kb/s, 29.97 fps, 29.97 tbr, 29.97 tbn, 30k tbc\n"],"name":"stdout"}]},{"cell_type":"markdown","metadata":{"id":"xlC7_AR59SbX"},"source":["Como foi observado, as informações diferem em relação a quantidade de quadros: 5577 para o primeiro vídeo e 836 para o segundo. Porém, as informações referentes ao codec são idênticas, significando que esses dois arquivos de vídeo possuem o mesmo tipo de compressão. O codec desses arquivos (877677894) se refere ao tipo de compressão MPEG4, de acordo com a a lista de codecs. Além disso, o comando \"ffprobe\" confirma essa informação: o retorno dessa função nos diz que há compressão em ambos os vídeos, do tipo MPEG4. O tamanho dos arquivos também diferem: 91.9 MB para o primeiro vídeo e 1 MB para o segundo. O tamanho de um arquivo de vídeo é dado pelo produto da quantidade de quadros, a resolução de um quadro e a quantidade de bytes de um pixel. Para um vídeo em tons de cinza (um canal), cada pixel tem 1 byte. Para um vídeo com sistema de três canais, cada pixel tem 3 bytes. Mas, utilizando um sistema de compressão, os vídeos tem um tamanho menor a esse."]}]}